<mxfile host="Electron" agent="Mozilla/5.0 (Windows NT 10.0; Win64; x64) AppleWebKit/537.36 (KHTML, like Gecko) draw.io/26.1.1 Chrome/132.0.6834.210 Electron/34.3.3 Safari/537.36" version="26.1.1">
  <diagram name="Page-1" id="9n51V0birsyVbleR57p-">
    <mxGraphModel dx="1036" dy="606" grid="1" gridSize="10" guides="1" tooltips="1" connect="1" arrows="1" fold="1" page="1" pageScale="1" pageWidth="827" pageHeight="1169" math="0" shadow="0">
      <root>
        <mxCell id="0" />
        <mxCell id="1" parent="0" />
        <mxCell id="2BwICHEU_G4UWTc_6JAI-1" value="&lt;span style=&quot;font-size: 14px;&quot;&gt;&lt;b&gt;&amp;nbsp; Report PDF-generation Diagram&lt;/b&gt;&lt;/span&gt;" style="rounded=0;whiteSpace=wrap;html=1;fillColor=#f5f5f5;fontColor=#333333;strokeColor=#666666;align=left;" parent="1" vertex="1">
          <mxGeometry x="10" width="510" height="30" as="geometry" />
        </mxCell>
        <mxCell id="2BwICHEU_G4UWTc_6JAI-2" value="Â© Sindre Ditlefsen 09.03.2025" style="text;html=1;strokeColor=none;fillColor=none;align=right;verticalAlign=middle;whiteSpace=wrap;rounded=0;" parent="1" vertex="1">
          <mxGeometry x="260" width="250" height="30" as="geometry" />
        </mxCell>
        <mxCell id="Z0VvkoSQmPEsNrfMpDx6-4" value="" style="endArrow=classic;html=1;rounded=0;" parent="1" edge="1">
          <mxGeometry width="50" height="50" relative="1" as="geometry">
            <mxPoint x="60" y="160" as="sourcePoint" />
            <mxPoint x="170" y="160" as="targetPoint" />
          </mxGeometry>
        </mxCell>
        <mxCell id="Z0VvkoSQmPEsNrfMpDx6-12" value="Google Bucket&#xa;Read JSON files" style="shape=image;verticalLabelPosition=bottom;labelBackgroundColor=default;verticalAlign=top;aspect=fixed;imageAspect=0;image=data:image/png,iVBORw0KGgoAAAANSUhEUgAAADAAAAAwCAYAAABXAvmHAAAAxXpUWHRSYXcgcHJvZmlsZSB0eXBlIGV4aWYAAHjabVBbDsMwCPvnFDtCgsmD46RrJ+0GO/5IQru2miUcgpFDoO3zftGjg6OQpFKz5hwMoqLcLKlhog2OQQYPwCW7X+p0CGwl/Dpr9v69Hg+DeTTL0smoPl1YroKK+9ebkT+EPhFbsrqRuhF4CtEN2vxWyFrL+QvLFq6oM6gTg4cc1ae43aXY9tZk74B5Q0QwBvIcAD0SoVmCwWqNxpYDxVhQfBJbyL897aAvGBZZknUBz70AAAGDaUNDUElDQyBwcm9maWxlAAB4nH2RPUjDQBzFX1OlrVQc7CDikKF1souKOJYqFsFCaSu06mBy6Rc0MSQpLo6Ca8HBj8Wqg4uzrg6ugiD4AeIuOCm6SIn/SwotYjw47se7e4+7d4DQqjPV7EsAqmYZ2VRSLBRXxMAr/AghiBhCEjP1dG4hD8/xdQ8fX+/iPMv73J9jUCmZDPCJxAmmGxbxOvHMpqVz3ieOsKqkEJ8TTxh0QeJHrssuv3GuOCzwzIiRz84RR4jFSg/LPcyqhko8TRxVVI3yhYLLCuctzmq9wTr35C8Ml7TlHNdpjiGFRaSRgQgZDdRQh4U4rRopJrK0n/Twjzr+DLlkctXAyDGPDaiQHD/4H/zu1ixPTbpJ4STQ/2LbHzEgsAu0m7b9fWzb7RPA/wxcaV3/RguY/SS92dWiR8DQNnBx3dXkPeByBxh50iVDciQ/TaFcBt7P6JuKwPAtMLDq9tbZx+kDkKeulm6Ag0NgvELZax7vDvb29u+ZTn8/ZTVyobgFxgIAAA12aVRYdFhNTDpjb20uYWRvYmUueG1wAAAAAAA8P3hwYWNrZXQgYmVnaW49Iu+7vyIgaWQ9Ilc1TTBNcENlaGlIenJlU3pOVGN6a2M5ZCI/Pgo8eDp4bXBtZXRhIHhtbG5zOng9ImFkb2JlOm5zOm1ldGEvIiB4OnhtcHRrPSJYTVAgQ29yZSA0LjQuMC1FeGl2MiI+CiA8cmRmOlJERiB4bWxuczpyZGY9Imh0dHA6Ly93d3cudzMub3JnLzE5OTkvMDIvMjItcmRmLXN5bnRheC1ucyMiPgogIDxyZGY6RGVzY3JpcHRpb24gcmRmOmFib3V0PSIiCiAgICB4bWxuczp4bXBNTT0iaHR0cDovL25zLmFkb2JlLmNvbS94YXAvMS4wL21tLyIKICAgIHhtbG5zOnN0RXZ0PSJodHRwOi8vbnMuYWRvYmUuY29tL3hhcC8xLjAvc1R5cGUvUmVzb3VyY2VFdmVudCMiCiAgICB4bWxuczpkYz0iaHR0cDovL3B1cmwub3JnL2RjL2VsZW1lbnRzLzEuMS8iCiAgICB4bWxuczpHSU1QPSJodHRwOi8vd3d3LmdpbXAub3JnL3htcC8iCiAgICB4bWxuczp0aWZmPSJodHRwOi8vbnMuYWRvYmUuY29tL3RpZmYvMS4wLyIKICAgIHhtbG5zOnhtcD0iaHR0cDovL25zLmFkb2JlLmNvbS94YXAvMS4wLyIKICAgeG1wTU06RG9jdW1lbnRJRD0iZ2ltcDpkb2NpZDpnaW1wOmE0NjFlNDgyLTYwZGUtNGYzMS04MTIxLTcwNTk5MTQ5Y2UxNyIKICAgeG1wTU06SW5zdGFuY2VJRD0ieG1wLmlpZDoxODcwNjk1MC1jMWIwLTQ2YTUtOTFlYi03YTMxNjExZTQ1ZTMiCiAgIHhtcE1NOk9yaWdpbmFsRG9jdW1lbnRJRD0ieG1wLmRpZDplN2ZkMDc3NC01YjI0LTRlNmYtOWM5OS00YTk5YmY5ZDQ4YmQiCiAgIGRjOkZvcm1hdD0iaW1hZ2UvcG5nIgogICBHSU1QOkFQST0iMi4wIgogICBHSU1QOlBsYXRmb3JtPSJXaW5kb3dzIgogICBHSU1QOlRpbWVTdGFtcD0iMTc0MTUwOTQ2ODQyODk1OSIKICAgR0lNUDpWZXJzaW9uPSIyLjEwLjM2IgogICB0aWZmOk9yaWVudGF0aW9uPSIxIgogICB4bXA6Q3JlYXRvclRvb2w9IkdJTVAgMi4xMCIKICAgeG1wOk1ldGFkYXRhRGF0ZT0iMjAyNTowMzowOVQwOTozNzo0NyswMTowMCIKICAgeG1wOk1vZGlmeURhdGU9IjIwMjU6MDM6MDlUMDk6Mzc6NDcrMDE6MDAiPgogICA8eG1wTU06SGlzdG9yeT4KICAgIDxyZGY6U2VxPgogICAgIDxyZGY6bGkKICAgICAgc3RFdnQ6YWN0aW9uPSJzYXZlZCIKICAgICAgc3RFdnQ6Y2hhbmdlZD0iLyIKICAgICAgc3RFdnQ6aW5zdGFuY2VJRD0ieG1wLmlpZDpkYTRiN2I2MS04M2MxLTQ4M2ItYTU0Yi00ZjYxM2M5Y2QxYTciCiAgICAgIHN0RXZ0OnNvZnR3YXJlQWdlbnQ9IkdpbXAgMi4xMCAoV2luZG93cykiCiAgICAgIHN0RXZ0OndoZW49IjIwMjUtMDMtMDlUMDk6Mzc6NDgiLz4KICAgIDwvcmRmOlNlcT4KICAgPC94bXBNTTpIaXN0b3J5PgogIDwvcmRmOkRlc2NyaXB0aW9uPgogPC9yZGY6UkRGPgo8L3g6eG1wbWV0YT4KICAgICAgICAgICAgICAgICAgICAgICAgICAgICAgICAgICAgICAgICAgICAgICAgICAgICAgICAgICAgICAgICAgICAgICAgICAgICAgICAgICAgICAgICAgICAgICAgICAgIAogICAgICAgICAgICAgICAgICAgICAgICAgICAgICAgICAgICAgICAgICAgICAgICAgICAgICAgICAgICAgICAgICAgICAgICAgICAgICAgICAgICAgICAgICAgICAgICAgICAgCiAgICAgICAgICAgICAgICAgICAgICAgICAgICAgICAgICAgICAgICAgICAgICAgICAgICAgICAgICAgICAgICAgICAgICAgICAgICAgICAgICAgICAgICAgICAgICAgICAgICAKICAgICAgICAgICAgICAgICAgICAgICAgICAgICAgICAgICAgICAgICAgICAgICAgICAgICAgICAgICAgICAgICAgICAgICAgICAgICAgICAgICAgICAgICAgICAgICAgICAgIAogICAgICAgICAgICAgICAgICAgICAgICAgICAgICAgICAgICAgICAgICAgICAgICAgICAgICAgICAgICAgICAgICAgICAgICAgICAgICAgICAgICAgICAgICAgICAgICAgICAgCiAgICAgICAgICAgICAgICAgICAgICAgICAgICAgICAgICAgICAgICAgICAgICAgICAgICAgICAgICAgICAgICAgICAgICAgICAgICAgICAgICAgICAgICAgICAgICAgICAgICAKICAgICAgICAgICAgICAgICAgICAgICAgICAgICAgICAgICAgICAgICAgICAgICAgICAgICAgICAgICAgICAgICAgICAgICAgICAgICAgICAgICAgICAgICAgICAgICAgICAgIAogICAgICAgICAgICAgICAgICAgICAgICAgICAgICAgICAgICAgICAgICAgICAgICAgICAgICAgICAgICAgICAgICAgICAgICAgICAgICAgICAgICAgICAgICAgICAgICAgICAgCiAgICAgICAgICAgICAgICAgICAgICAgICAgICAgICAgICAgICAgICAgICAgICAgICAgICAgICAgICAgICAgICAgICAgICAgICAgICAgICAgICAgICAgICAgICAgICAgICAgICAKICAgICAgICAgICAgICAgICAgICAgICAgICAgICAgICAgICAgICAgICAgICAgICAgICAgICAgICAgICAgICAgICAgICAgICAgICAgICAgICAgICAgICAgICAgICAgICAgICAgIAogICAgICAgICAgICAgICAgICAgICAgICAgICAgICAgICAgICAgICAgICAgICAgICAgICAgICAgICAgICAgICAgICAgICAgICAgICAgICAgICAgICAgICAgICAgICAgICAgICAgCiAgICAgICAgICAgICAgICAgICAgICAgICAgICAgICAgICAgICAgICAgICAgICAgICAgICAgICAgICAgICAgICAgICAgICAgICAgICAgICAgICAgICAgICAgICAgICAgICAgICAKICAgICAgICAgICAgICAgICAgICAgICAgICAgICAgICAgICAgICAgICAgICAgICAgICAgICAgICAgICAgICAgICAgICAgICAgICAgICAgICAgICAgICAgICAgICAgICAgICAgIAogICAgICAgICAgICAgICAgICAgICAgICAgICAgICAgICAgICAgICAgICAgICAgICAgICAgICAgICAgICAgICAgICAgICAgICAgICAgICAgICAgICAgICAgICAgICAgICAgICAgCiAgICAgICAgICAgICAgICAgICAgICAgICAgICAgICAgICAgICAgICAgICAgICAgICAgICAgICAgICAgICAgICAgICAgICAgICAgICAgICAgICAgICAgICAgICAgICAgICAgICAKICAgICAgICAgICAgICAgICAgICAgICAgICAgICAgICAgICAgICAgICAgICAgICAgICAgICAgICAgICAgICAgICAgICAgICAgICAgICAgICAgICAgICAgICAgICAgICAgICAgIAogICAgICAgICAgICAgICAgICAgICAgICAgICAgICAgICAgICAgICAgICAgICAgICAgICAgICAgICAgICAgICAgICAgICAgICAgICAgICAgICAgICAgICAgICAgICAgICAgICAgCiAgICAgICAgICAgICAgICAgICAgICAgICAgICAgICAgICAgICAgICAgICAgICAgICAgICAgICAgICAgICAgICAgICAgICAgICAgICAgICAgICAgICAgICAgICAgICAgICAgICAKICAgICAgICAgICAgICAgICAgICAgICAgICAgICAgICAgICAgICAgICAgICAgICAgICAgICAgICAgICAgICAgICAgICAgICAgICAgICAgICAgICAgICAgICAgICAgICAgICAgIAogICAgICAgICAgICAgICAgICAgICAgICAgICAgICAgICAgICAgICAgICAgICAgICAgICAgICAgICAgICAgICAgICAgICAgICAgICAgICAgICAgICAgICAgICAgICAgICAgICAgCiAgICAgICAgICAgICAgICAgICAgICAgICAgIAo8P3hwYWNrZXQgZW5kPSJ3Ij8+j0ynRQAAAAZiS0dEAAAASwC6rjiDzAAAAAlwSFlzAAC4jAAAuIwBzPa7LwAAAAd0SU1FB+kDCQglMAcOZEMAAAU+SURBVGje7ZpLbFRlFMd/57t3ZvoAKzTBSmIglvhIJEgTdaGwMG3xmZiyVNkpcYVGCm3RAAl9UKjRhUTDTjbGBFyQkPQhEKobEmiILoiGqNEADVRs6WPm3rnfcTF90sfce/ugJpzkm2S+O/N95//9zznfOWcGHsj9FYn6hcrDtlSVLUDJbOvMtqiOvcjUqVHpF6G7a6/pWxQAla3WaKAfAIeAh+KAzyMKDACfOoZjHXsdG+ZLJvTqVncAX4yevCySNZQAnwfKjgVloLIleERVe4CyJTLtmyKyuavO6V0QBhStXULlAcpUtXZBGKhsyW5U5SKQWuIAkxHh+a469+fYDFQdDlxVbQJN5XxsSUdKVZurWgI3NgBrtRp47T6G+VcV3RbLhKpassVW7UXg6ft8V10VMc911blDkRhQte8BTy2Dy/ZJVft+JAYqm/21ir0ClC6TjKFPMJu66hPX8zJQ2eILag+glC693846SlXtgaoWT/KbkGqFou+wjLQfHe+qUjEngG0tnqtqjwIFyzDxTKlqW9Vh350VQKC2BtiyfJNnfUmt3T6jE1c3eysCDXqA8mVeAlwzxtncWZccBBinwxJ8PFV5zZtpFLtQ8ahgYuamVuHSDWU4G35PoFxtsBs4MM5AVXN6nVV7GVgVRYFXNhg+qkkhEQCogp9VkgnBKrR9N0DnH4mo2P81YjZ31hf8aVRVVG1TVOUBXAOOA8aEH1d+HaL2617+6c/iGHA0g/WGom79sKptVlVx32xNb1V0e/wiKpqsLHIoX+OQTEzQZv10LqIki6LsXPNGa3qr61vdDSTjqJ/2YSRtI5nQY2VJdr5VigiMZCxpL2f31s9EBZHMqtZKVfPgXasUx60BV7seZEdiO/HtYTuFR5NIhQZhhGEXBdF4BiQCjpsEUdTLmYFOYkM0935s/bFnY/MGzUWRSfurl8EqOCFBuI5wPqv6+vSzVfLNvbzeYVdNASJFufASIRKJ5Bj47Ntb/PCbN/W5n8YCJlk4Q845sY8jct64Ro4CXn7nnD5XkITClFCQFApSJtT462aGr76/jedbClOGgsTMDmT9NNYbnrS33quD5xqOmNN7ii4InJxdYZ1BeY0dhQaHLb/fyuL5OoNyU8cEiOn7CZw8vaf4ghERFZEG0DvTkeo9Sk99FgQQBEpgw4+NTxTRurOMVSXu6FweR58RhN4RkQYRmXC5qqa7+1V1f5TTLHbh2TU+YjMhY5beU3PDpb99hvwQESeRGvUJQUQOdjasPDglFzJi2gIN3gbdEBbAUBZ+uu5iPW88ji+W5C47xSSLrhkxbdPS6fb64kERPgFs1MVNsgiTWPy2kfUz1qYH97XXrxicsR5wjHNKoDtOxWSShZhEcpGrMroVe2rOor66aaDCqv0xblVmveHFMqeMiHnxXOO6y3PWxAZ6BE7EPaXFY4ITIvSEaqtUN/avVZ1fWyXwhtGFYkLoQ8ymc43r87dVADr2lVwXpDF36cc7MSdZOOrY8z59BRpnUn7OzpwYOQ5cnc/BmXEQ82wtGnM8cnO3vaFkSERqY+ULCwdCEak9e2j9UKzutIh0AGfm6XzzcewzGOmI1Z2ecOg7z2iuSz3vZlfEEJsWY1442/h4/B84cg696hcRvlyIUBiJCeFYPuVDAcjRJEeBGwsREUOmHTdBjoRaL8yH2vet7hVoALVLwIRFaDjXVN67YABy2apzQpBdQP98I9MsTGhubflQxPkmSmMhkmxr7CtV1cl/NZBQ4XD6xgqKPzKAqgUYEKT7bNOGPh7I/0j+A8fRYP3A7KuzAAAAAElFTkSuQmCC;" parent="1" vertex="1">
          <mxGeometry x="420" y="131" width="48" height="48" as="geometry" />
        </mxCell>
        <mxCell id="Z0VvkoSQmPEsNrfMpDx6-13" value="" style="endArrow=classic;html=1;rounded=0;exitX=1;exitY=0.5;exitDx=0;exitDy=0;startArrow=classic;startFill=1;" parent="1" edge="1">
          <mxGeometry width="50" height="50" relative="1" as="geometry">
            <mxPoint x="320" y="163.5" as="sourcePoint" />
            <mxPoint x="397" y="163.5" as="targetPoint" />
          </mxGeometry>
        </mxCell>
        <mxCell id="Z0VvkoSQmPEsNrfMpDx6-14" value="Scheduler" style="shape=image;verticalLabelPosition=bottom;labelBackgroundColor=default;verticalAlign=top;aspect=fixed;imageAspect=0;image=data:image/png,iVBORw0KGgoAAAANSUhEUgAAADAAAAAwCAYAAABXAvmHAAAAwnpUWHRSYXcgcHJvZmlsZSB0eXBlIGV4aWYAAHjabVBBEsMgCLzzij5BAQk8xzTpTH/Q5xeVpLHtzrhZWWaDwP56PuDWgJmBy6JiIsnBxobVhaaB2jkn7txBYfl9qsNpoJfo06kS/Uc9nwHjU12VS5Dew1hnwzjy9SsIY7I2UdNbBFkEEQ4jR0Adz0piulyfsO5pho4DjVjnsX/ui29vK/4fQtwpU3ImkjEAtVOAqgvqbN7oTa6ZxLlQjjBfyL89HYA33K5ZEsnsw40AAAGDaUNDUElDQyBwcm9maWxlAAB4nH2RPUjDQBzFX1OlrVQc7CDikKF1souKOJYqFsFCaSu06mBy6Rc0MSQpLo6Ca8HBj8Wqg4uzrg6ugiD4AeIuOCm6SIn/SwotYjw47se7e4+7d4DQqjPV7EsAqmYZ2VRSLBRXxMAr/AghiBhCEjP1dG4hD8/xdQ8fX+/iPMv73J9jUCmZDPCJxAmmGxbxOvHMpqVz3ieOsKqkEJ8TTxh0QeJHrssuv3GuOCzwzIiRz84RR4jFSg/LPcyqhko8TRxVVI3yhYLLCuctzmq9wTr35C8Ml7TlHNdpjiGFRaSRgQgZDdRQh4U4rRopJrK0n/Twjzr+DLlkctXAyDGPDaiQHD/4H/zu1ixPTbpJ4STQ/2LbHzEgsAu0m7b9fWzb7RPA/wxcaV3/RguY/SS92dWiR8DQNnBx3dXkPeByBxh50iVDciQ/TaFcBt7P6JuKwPAtMLDq9tbZx+kDkKeulm6Ag0NgvELZax7vDvb29u+ZTn8/ZTVyobgFxgIAAA12aVRYdFhNTDpjb20uYWRvYmUueG1wAAAAAAA8P3hwYWNrZXQgYmVnaW49Iu+7vyIgaWQ9Ilc1TTBNcENlaGlIenJlU3pOVGN6a2M5ZCI/Pgo8eDp4bXBtZXRhIHhtbG5zOng9ImFkb2JlOm5zOm1ldGEvIiB4OnhtcHRrPSJYTVAgQ29yZSA0LjQuMC1FeGl2MiI+CiA8cmRmOlJERiB4bWxuczpyZGY9Imh0dHA6Ly93d3cudzMub3JnLzE5OTkvMDIvMjItcmRmLXN5bnRheC1ucyMiPgogIDxyZGY6RGVzY3JpcHRpb24gcmRmOmFib3V0PSIiCiAgICB4bWxuczp4bXBNTT0iaHR0cDovL25zLmFkb2JlLmNvbS94YXAvMS4wL21tLyIKICAgIHhtbG5zOnN0RXZ0PSJodHRwOi8vbnMuYWRvYmUuY29tL3hhcC8xLjAvc1R5cGUvUmVzb3VyY2VFdmVudCMiCiAgICB4bWxuczpkYz0iaHR0cDovL3B1cmwub3JnL2RjL2VsZW1lbnRzLzEuMS8iCiAgICB4bWxuczpHSU1QPSJodHRwOi8vd3d3LmdpbXAub3JnL3htcC8iCiAgICB4bWxuczp0aWZmPSJodHRwOi8vbnMuYWRvYmUuY29tL3RpZmYvMS4wLyIKICAgIHhtbG5zOnhtcD0iaHR0cDovL25zLmFkb2JlLmNvbS94YXAvMS4wLyIKICAgeG1wTU06RG9jdW1lbnRJRD0iZ2ltcDpkb2NpZDpnaW1wOmE0NWIzMTc4LTRlZDgtNDU1Ny04MDU4LWUyOGE0ZTgzNGJjZSIKICAgeG1wTU06SW5zdGFuY2VJRD0ieG1wLmlpZDpjYzZlMWU4ZC03MmQzLTRmYjgtYmUyZS0xMWM0YjM3NmNmMTYiCiAgIHhtcE1NOk9yaWdpbmFsRG9jdW1lbnRJRD0ieG1wLmRpZDplZGM0MTY0Ni04Y2U0LTQwZTItODU2MS0wOTJjOWQ0NmRkODUiCiAgIGRjOkZvcm1hdD0iaW1hZ2UvcG5nIgogICBHSU1QOkFQST0iMi4wIgogICBHSU1QOlBsYXRmb3JtPSJXaW5kb3dzIgogICBHSU1QOlRpbWVTdGFtcD0iMTc0MTUxMzYxMjc5MzE1NiIKICAgR0lNUDpWZXJzaW9uPSIyLjEwLjM2IgogICB0aWZmOk9yaWVudGF0aW9uPSIxIgogICB4bXA6Q3JlYXRvclRvb2w9IkdJTVAgMi4xMCIKICAgeG1wOk1ldGFkYXRhRGF0ZT0iMjAyNTowMzowOVQxMDo0Njo1MSswMTowMCIKICAgeG1wOk1vZGlmeURhdGU9IjIwMjU6MDM6MDlUMTA6NDY6NTErMDE6MDAiPgogICA8eG1wTU06SGlzdG9yeT4KICAgIDxyZGY6U2VxPgogICAgIDxyZGY6bGkKICAgICAgc3RFdnQ6YWN0aW9uPSJzYXZlZCIKICAgICAgc3RFdnQ6Y2hhbmdlZD0iLyIKICAgICAgc3RFdnQ6aW5zdGFuY2VJRD0ieG1wLmlpZDpmYzVhZmQ0Mi0yMDE4LTQ2ZGUtYjJjNy0yOTg5MjJkNTIzOTYiCiAgICAgIHN0RXZ0OnNvZnR3YXJlQWdlbnQ9IkdpbXAgMi4xMCAoV2luZG93cykiCiAgICAgIHN0RXZ0OndoZW49IjIwMjUtMDMtMDlUMTA6NDY6NTIiLz4KICAgIDwvcmRmOlNlcT4KICAgPC94bXBNTTpIaXN0b3J5PgogIDwvcmRmOkRlc2NyaXB0aW9uPgogPC9yZGY6UkRGPgo8L3g6eG1wbWV0YT4KICAgICAgICAgICAgICAgICAgICAgICAgICAgICAgICAgICAgICAgICAgICAgICAgICAgICAgICAgICAgICAgICAgICAgICAgICAgICAgICAgICAgICAgICAgICAgICAgICAgIAogICAgICAgICAgICAgICAgICAgICAgICAgICAgICAgICAgICAgICAgICAgICAgICAgICAgICAgICAgICAgICAgICAgICAgICAgICAgICAgICAgICAgICAgICAgICAgICAgICAgCiAgICAgICAgICAgICAgICAgICAgICAgICAgICAgICAgICAgICAgICAgICAgICAgICAgICAgICAgICAgICAgICAgICAgICAgICAgICAgICAgICAgICAgICAgICAgICAgICAgICAKICAgICAgICAgICAgICAgICAgICAgICAgICAgICAgICAgICAgICAgICAgICAgICAgICAgICAgICAgICAgICAgICAgICAgICAgICAgICAgICAgICAgICAgICAgICAgICAgICAgIAogICAgICAgICAgICAgICAgICAgICAgICAgICAgICAgICAgICAgICAgICAgICAgICAgICAgICAgICAgICAgICAgICAgICAgICAgICAgICAgICAgICAgICAgICAgICAgICAgICAgCiAgICAgICAgICAgICAgICAgICAgICAgICAgICAgICAgICAgICAgICAgICAgICAgICAgICAgICAgICAgICAgICAgICAgICAgICAgICAgICAgICAgICAgICAgICAgICAgICAgICAKICAgICAgICAgICAgICAgICAgICAgICAgICAgICAgICAgICAgICAgICAgICAgICAgICAgICAgICAgICAgICAgICAgICAgICAgICAgICAgICAgICAgICAgICAgICAgICAgICAgIAogICAgICAgICAgICAgICAgICAgICAgICAgICAgICAgICAgICAgICAgICAgICAgICAgICAgICAgICAgICAgICAgICAgICAgICAgICAgICAgICAgICAgICAgICAgICAgICAgICAgCiAgICAgICAgICAgICAgICAgICAgICAgICAgICAgICAgICAgICAgICAgICAgICAgICAgICAgICAgICAgICAgICAgICAgICAgICAgICAgICAgICAgICAgICAgICAgICAgICAgICAKICAgICAgICAgICAgICAgICAgICAgICAgICAgICAgICAgICAgICAgICAgICAgICAgICAgICAgICAgICAgICAgICAgICAgICAgICAgICAgICAgICAgICAgICAgICAgICAgICAgIAogICAgICAgICAgICAgICAgICAgICAgICAgICAgICAgICAgICAgICAgICAgICAgICAgICAgICAgICAgICAgICAgICAgICAgICAgICAgICAgICAgICAgICAgICAgICAgICAgICAgCiAgICAgICAgICAgICAgICAgICAgICAgICAgICAgICAgICAgICAgICAgICAgICAgICAgICAgICAgICAgICAgICAgICAgICAgICAgICAgICAgICAgICAgICAgICAgICAgICAgICAKICAgICAgICAgICAgICAgICAgICAgICAgICAgICAgICAgICAgICAgICAgICAgICAgICAgICAgICAgICAgICAgICAgICAgICAgICAgICAgICAgICAgICAgICAgICAgICAgICAgIAogICAgICAgICAgICAgICAgICAgICAgICAgICAgICAgICAgICAgICAgICAgICAgICAgICAgICAgICAgICAgICAgICAgICAgICAgICAgICAgICAgICAgICAgICAgICAgICAgICAgCiAgICAgICAgICAgICAgICAgICAgICAgICAgICAgICAgICAgICAgICAgICAgICAgICAgICAgICAgICAgICAgICAgICAgICAgICAgICAgICAgICAgICAgICAgICAgICAgICAgICAKICAgICAgICAgICAgICAgICAgICAgICAgICAgICAgICAgICAgICAgICAgICAgICAgICAgICAgICAgICAgICAgICAgICAgICAgICAgICAgICAgICAgICAgICAgICAgICAgICAgIAogICAgICAgICAgICAgICAgICAgICAgICAgICAgICAgICAgICAgICAgICAgICAgICAgICAgICAgICAgICAgICAgICAgICAgICAgICAgICAgICAgICAgICAgICAgICAgICAgICAgCiAgICAgICAgICAgICAgICAgICAgICAgICAgICAgICAgICAgICAgICAgICAgICAgICAgICAgICAgICAgICAgICAgICAgICAgICAgICAgICAgICAgICAgICAgICAgICAgICAgICAKICAgICAgICAgICAgICAgICAgICAgICAgICAgICAgICAgICAgICAgICAgICAgICAgICAgICAgICAgICAgICAgICAgICAgICAgICAgICAgICAgICAgICAgICAgICAgICAgICAgIAogICAgICAgICAgICAgICAgICAgICAgICAgICAgICAgICAgICAgICAgICAgICAgICAgICAgICAgICAgICAgICAgICAgICAgICAgICAgICAgICAgICAgICAgICAgICAgICAgICAgCiAgICAgICAgICAgICAgICAgICAgICAgICAgIAo8P3hwYWNrZXQgZW5kPSJ3Ij8+DNB3DwAAAAZiS0dEAAAASwC6rjiDzAAAAAlwSFlzAAALEwAACxMBAJqcGAAAAAd0SU1FB+kDCQkuNOJVE6YAAAZBSURBVGje7Zl7bFNVHMc/p+26cVfYhlMeQaKBgGQDEpMqhkdiwVdEgcaIJAbFSmEkPPQPNUwiGksEJS4qCBcrBhMEg0UDghIdCYhiSjCMh5CIGpnicwxW2vV5/cOzeTn2vY7EZL+kf5zTc8/9fn+v8/udC33SJ1dXPgrGRG/tHQjGROBIYftbCth8SiAYO56EM4FgbEYvgJ8GnMLgZCAYuyPf50Sem08FdgDVcupX4Ca3034x3XqvPyykcrr2N4CU7tGMDPuXA6eBG+RUBzDH7bR/3GMCEvwHQJVp+gIwyu20/2kCXAdMASYA9cAwoL8JUCtwAjgMHABOdhEKBGMacBYYbHrHZWB2LhIiB3iXBF9tmk4BK9xO+yqvP9wPmAUsA8YB5XlaPgq0AE3ATt2jRQLBmBdYB9hM6zqAh9xO+56CCQSCsduBgALeAFb+3m6sOvpT8h7gRQm8J9ICPDt6kGXPjYMsi4BXAatCYrbbad+bN4FAMGYBvgVGmaaTwMr9pxJvRBOsBh7PkQSi0g0AHIA9y9oU8JbNwtPT6m2PAK8olvgRGOl22pPqg7YslhmogH9u/6nElmiCT4Bb0zwTBr4CPgQOAT8DMfmfHRgOTJIudwtQoWRDbyLF+M9PJB6YWm8TwMsmfAMyKTubCy0C1srhiv2nEtujCfbKYDVLJ7AReFP3aGfy8RmvP1wHLAbmpbHMyTIrd0+ts7mBl+Tck26nfUMxQXwNwL7jiUTK4NM0mj8CeHWP9k0xzu/1h2+T5Mcqf31tEdx151ibFRBup/2votOoTJEbAK8SzO8D83WP1pHteZcvVA1EmxsdkQz71wBbgOnKXzqwMNPZUQiB+6RfmwN2GzBP92idOcDbgHPAJZkUdgPbmhsdIeUdlcB24F4lsGfqHm1X0QRknj+spMog4NI9WigXeUkgoiSLc8ByYGtzoyOlWOKgEmMtwATdo0WKrYVmKeAj0m1CPcj71wPvAOtdvlD3wad7tAvAAiBuWjtOYii8mJO+v0yZXq97tGMlqN2sEmyTyxeymEgckvFglmUSS8EWqFO0f1kGcyllPjBHmXtdHoJmK9QVQ2CKUtsc1D3adyUmYAVWuXyhSpMVjgFHTWvKJZaCCUxQxjt7qY8ZDjyo9k05sGQnIH2uXpk+1IuN3v3K+AtlXJ8pDixZiA0zjUOyiektGePyhfqZxj/I+qtLhmXCaslyPvRXCMSLAJZvfztQqYk6ZXHYJf0z7WXpLZW6fKFaYJNS25dcMpXThmwkKkwasOcJXMiyeTMwIk8cbabSG/leTWlqjEIskJI9bJdUKv1qJvDlwPPAvgLAA5xWir0bFMu1Skz5EZAV4AllemIO8KMl8BVKs5KPqAXbZGV8IlNVmi0GDqepi9IBt7p8obnAl9kOnCxyTlaiZpmRA0teBA4oR/okrz88UgFfKX19s9KC5itJYLm5vPb6w+OBm5Xe+kAxBE7KctYcBw3KmohMecVmMz+wVZlbrJQwLRJLYQSkzzUp0w1SQwDIen6JTJepAjWvA0uUnmAiMFdZ25StK8uluZ2KFfoBm7z+sMNEohNYKBv01jzAt8q1Dc2NjqjS0GwEyhTt7+yNlnI78KjaUrp8IYcsj6cDY0xx0SbvPncB7121lrInTb2sbcr/DUTR2dxYaZS6qbflItDRCeHO1Pc1lRbDXtZNWACzgRFefzjttYo8mCLFXKvE4hh/XEqdtZflLqWyrljwdli0dRhL2kLGWpsV69AaC2X/pdwptbW+FBdb8QT8ciFFPEmy1iGWVTvEumxWEDlcZ7FhsPa39pQtFIUyKwypvsISako1Xy22prlanAzMTHO12K358+0pEU/CgArBtVUiLgRPSOUYhbpQA7BWCGzXVVngosHlqJFqC6VeGFxjGZrmcrcf4JK/oi5328PGmUSKNf0rsNZWCYSgTN5Wx6WV87OAzArnzT2BYZBoCxlPWQRNNQ6BDLqSXa8DuyMxiMYNb5UmXhPiCsIXgCG6R4sWYgGzyeJCsLR2gNiw8bFuU+7y+sOfUaIPHN1x5w/rxj8H3TqT1RKZDspsMTAXWCMffAZ4N5Mf9vQTU4b9HgZWS0Uu1T3ajmKuFq2yrEgWeOtc0Ee+Ur+/T/qkT/5H8jdcUWci/F2s7gAAAABJRU5ErkJggg==;" parent="1" vertex="1">
          <mxGeometry x="10" y="131" width="48" height="48" as="geometry" />
        </mxCell>
        <mxCell id="Z0VvkoSQmPEsNrfMpDx6-15" value="Cloud Run Functions&#xa;report-pdf-generation" style="shape=image;verticalLabelPosition=bottom;labelBackgroundColor=default;verticalAlign=top;aspect=fixed;imageAspect=0;image=data:image/png,iVBORw0KGgoAAAANSUhEUgAAADAAAAAwCAYAAABXAvmHAAAAwnpUWHRSYXcgcHJvZmlsZSB0eXBlIGV4aWYAAHjabVBBEsMgCLzzij5BAQ08xzTpTH/Q5xeFpLHtzrhBdmeDwP56PuDWgZmByyJVa00GVlZsVkhytME58eABCsnuUx9OAa1FH6fU8B/9fAb4p1lVLkFyD2GdBeXIl68gjMn6RL3eIkgjiNCFHAHNn5WqynJ9wrqnGeIHOrHMY//cF9veVuw/hLhTpmRMVH0A6qcANStosJrRTFYzFeMyrNkX8m9PB+AN3UhZFmoIolwAAAGDaUNDUElDQyBwcm9maWxlAAB4nH2RPUjDQBzFX1OlrVQc7CDikKF1souKOJYqFsFCaSu06mBy6Rc0MSQpLo6Ca8HBj8Wqg4uzrg6ugiD4AeIuOCm6SIn/SwotYjw47se7e4+7d4DQqjPV7EsAqmYZ2VRSLBRXxMAr/AghiBhCEjP1dG4hD8/xdQ8fX+/iPMv73J9jUCmZDPCJxAmmGxbxOvHMpqVz3ieOsKqkEJ8TTxh0QeJHrssuv3GuOCzwzIiRz84RR4jFSg/LPcyqhko8TRxVVI3yhYLLCuctzmq9wTr35C8Ml7TlHNdpjiGFRaSRgQgZDdRQh4U4rRopJrK0n/Twjzr+DLlkctXAyDGPDaiQHD/4H/zu1ixPTbpJ4STQ/2LbHzEgsAu0m7b9fWzb7RPA/wxcaV3/RguY/SS92dWiR8DQNnBx3dXkPeByBxh50iVDciQ/TaFcBt7P6JuKwPAtMLDq9tbZx+kDkKeulm6Ag0NgvELZax7vDvb29u+ZTn8/ZTVyobgFxgIAAA12aVRYdFhNTDpjb20uYWRvYmUueG1wAAAAAAA8P3hwYWNrZXQgYmVnaW49Iu+7vyIgaWQ9Ilc1TTBNcENlaGlIenJlU3pOVGN6a2M5ZCI/Pgo8eDp4bXBtZXRhIHhtbG5zOng9ImFkb2JlOm5zOm1ldGEvIiB4OnhtcHRrPSJYTVAgQ29yZSA0LjQuMC1FeGl2MiI+CiA8cmRmOlJERiB4bWxuczpyZGY9Imh0dHA6Ly93d3cudzMub3JnLzE5OTkvMDIvMjItcmRmLXN5bnRheC1ucyMiPgogIDxyZGY6RGVzY3JpcHRpb24gcmRmOmFib3V0PSIiCiAgICB4bWxuczp4bXBNTT0iaHR0cDovL25zLmFkb2JlLmNvbS94YXAvMS4wL21tLyIKICAgIHhtbG5zOnN0RXZ0PSJodHRwOi8vbnMuYWRvYmUuY29tL3hhcC8xLjAvc1R5cGUvUmVzb3VyY2VFdmVudCMiCiAgICB4bWxuczpkYz0iaHR0cDovL3B1cmwub3JnL2RjL2VsZW1lbnRzLzEuMS8iCiAgICB4bWxuczpHSU1QPSJodHRwOi8vd3d3LmdpbXAub3JnL3htcC8iCiAgICB4bWxuczp0aWZmPSJodHRwOi8vbnMuYWRvYmUuY29tL3RpZmYvMS4wLyIKICAgIHhtbG5zOnhtcD0iaHR0cDovL25zLmFkb2JlLmNvbS94YXAvMS4wLyIKICAgeG1wTU06RG9jdW1lbnRJRD0iZ2ltcDpkb2NpZDpnaW1wOjkyMTNjNTRkLWE1MjAtNGIwZC1hYzI5LTgzNmM2YjQ4OWM3MiIKICAgeG1wTU06SW5zdGFuY2VJRD0ieG1wLmlpZDo2YjU1ZjVhNC1mNWY2LTRlNDYtYjk0Ny04NDgwMTk1ZjkyMTAiCiAgIHhtcE1NOk9yaWdpbmFsRG9jdW1lbnRJRD0ieG1wLmRpZDo0Y2I1ZDJiMC1lZGJmLTRlYjUtODdmOC1kMTQxNGRkMzlmM2MiCiAgIGRjOkZvcm1hdD0iaW1hZ2UvcG5nIgogICBHSU1QOkFQST0iMi4wIgogICBHSU1QOlBsYXRmb3JtPSJXaW5kb3dzIgogICBHSU1QOlRpbWVTdGFtcD0iMTc0MTUxMzU1ODE3ODAxNCIKICAgR0lNUDpWZXJzaW9uPSIyLjEwLjM2IgogICB0aWZmOk9yaWVudGF0aW9uPSIxIgogICB4bXA6Q3JlYXRvclRvb2w9IkdJTVAgMi4xMCIKICAgeG1wOk1ldGFkYXRhRGF0ZT0iMjAyNTowMzowOVQxMDo0NTo1NiswMTowMCIKICAgeG1wOk1vZGlmeURhdGU9IjIwMjU6MDM6MDlUMTA6NDU6NTYrMDE6MDAiPgogICA8eG1wTU06SGlzdG9yeT4KICAgIDxyZGY6U2VxPgogICAgIDxyZGY6bGkKICAgICAgc3RFdnQ6YWN0aW9uPSJzYXZlZCIKICAgICAgc3RFdnQ6Y2hhbmdlZD0iLyIKICAgICAgc3RFdnQ6aW5zdGFuY2VJRD0ieG1wLmlpZDo4ZDBkODEwYi1mNjczLTQ1NWEtYjIzNC1jOGQ1OTgwMTU2MzkiCiAgICAgIHN0RXZ0OnNvZnR3YXJlQWdlbnQ9IkdpbXAgMi4xMCAoV2luZG93cykiCiAgICAgIHN0RXZ0OndoZW49IjIwMjUtMDMtMDlUMTA6NDU6NTgiLz4KICAgIDwvcmRmOlNlcT4KICAgPC94bXBNTTpIaXN0b3J5PgogIDwvcmRmOkRlc2NyaXB0aW9uPgogPC9yZGY6UkRGPgo8L3g6eG1wbWV0YT4KICAgICAgICAgICAgICAgICAgICAgICAgICAgICAgICAgICAgICAgICAgICAgICAgICAgICAgICAgICAgICAgICAgICAgICAgICAgICAgICAgICAgICAgICAgICAgICAgICAgIAogICAgICAgICAgICAgICAgICAgICAgICAgICAgICAgICAgICAgICAgICAgICAgICAgICAgICAgICAgICAgICAgICAgICAgICAgICAgICAgICAgICAgICAgICAgICAgICAgICAgCiAgICAgICAgICAgICAgICAgICAgICAgICAgICAgICAgICAgICAgICAgICAgICAgICAgICAgICAgICAgICAgICAgICAgICAgICAgICAgICAgICAgICAgICAgICAgICAgICAgICAKICAgICAgICAgICAgICAgICAgICAgICAgICAgICAgICAgICAgICAgICAgICAgICAgICAgICAgICAgICAgICAgICAgICAgICAgICAgICAgICAgICAgICAgICAgICAgICAgICAgIAogICAgICAgICAgICAgICAgICAgICAgICAgICAgICAgICAgICAgICAgICAgICAgICAgICAgICAgICAgICAgICAgICAgICAgICAgICAgICAgICAgICAgICAgICAgICAgICAgICAgCiAgICAgICAgICAgICAgICAgICAgICAgICAgICAgICAgICAgICAgICAgICAgICAgICAgICAgICAgICAgICAgICAgICAgICAgICAgICAgICAgICAgICAgICAgICAgICAgICAgICAKICAgICAgICAgICAgICAgICAgICAgICAgICAgICAgICAgICAgICAgICAgICAgICAgICAgICAgICAgICAgICAgICAgICAgICAgICAgICAgICAgICAgICAgICAgICAgICAgICAgIAogICAgICAgICAgICAgICAgICAgICAgICAgICAgICAgICAgICAgICAgICAgICAgICAgICAgICAgICAgICAgICAgICAgICAgICAgICAgICAgICAgICAgICAgICAgICAgICAgICAgCiAgICAgICAgICAgICAgICAgICAgICAgICAgICAgICAgICAgICAgICAgICAgICAgICAgICAgICAgICAgICAgICAgICAgICAgICAgICAgICAgICAgICAgICAgICAgICAgICAgICAKICAgICAgICAgICAgICAgICAgICAgICAgICAgICAgICAgICAgICAgICAgICAgICAgICAgICAgICAgICAgICAgICAgICAgICAgICAgICAgICAgICAgICAgICAgICAgICAgICAgIAogICAgICAgICAgICAgICAgICAgICAgICAgICAgICAgICAgICAgICAgICAgICAgICAgICAgICAgICAgICAgICAgICAgICAgICAgICAgICAgICAgICAgICAgICAgICAgICAgICAgCiAgICAgICAgICAgICAgICAgICAgICAgICAgICAgICAgICAgICAgICAgICAgICAgICAgICAgICAgICAgICAgICAgICAgICAgICAgICAgICAgICAgICAgICAgICAgICAgICAgICAKICAgICAgICAgICAgICAgICAgICAgICAgICAgICAgICAgICAgICAgICAgICAgICAgICAgICAgICAgICAgICAgICAgICAgICAgICAgICAgICAgICAgICAgICAgICAgICAgICAgIAogICAgICAgICAgICAgICAgICAgICAgICAgICAgICAgICAgICAgICAgICAgICAgICAgICAgICAgICAgICAgICAgICAgICAgICAgICAgICAgICAgICAgICAgICAgICAgICAgICAgCiAgICAgICAgICAgICAgICAgICAgICAgICAgICAgICAgICAgICAgICAgICAgICAgICAgICAgICAgICAgICAgICAgICAgICAgICAgICAgICAgICAgICAgICAgICAgICAgICAgICAKICAgICAgICAgICAgICAgICAgICAgICAgICAgICAgICAgICAgICAgICAgICAgICAgICAgICAgICAgICAgICAgICAgICAgICAgICAgICAgICAgICAgICAgICAgICAgICAgICAgIAogICAgICAgICAgICAgICAgICAgICAgICAgICAgICAgICAgICAgICAgICAgICAgICAgICAgICAgICAgICAgICAgICAgICAgICAgICAgICAgICAgICAgICAgICAgICAgICAgICAgCiAgICAgICAgICAgICAgICAgICAgICAgICAgICAgICAgICAgICAgICAgICAgICAgICAgICAgICAgICAgICAgICAgICAgICAgICAgICAgICAgICAgICAgICAgICAgICAgICAgICAKICAgICAgICAgICAgICAgICAgICAgICAgICAgICAgICAgICAgICAgICAgICAgICAgICAgICAgICAgICAgICAgICAgICAgICAgICAgICAgICAgICAgICAgICAgICAgICAgICAgIAogICAgICAgICAgICAgICAgICAgICAgICAgICAgICAgICAgICAgICAgICAgICAgICAgICAgICAgICAgICAgICAgICAgICAgICAgICAgICAgICAgICAgICAgICAgICAgICAgICAgCiAgICAgICAgICAgICAgICAgICAgICAgICAgIAo8P3hwYWNrZXQgZW5kPSJ3Ij8+OL4NMQAAAAZiS0dEAAAASwC6rjiDzAAAAAlwSFlzAAALEwAACxMBAJqcGAAAAAd0SU1FB+kDCQktOi7AbWIAAAQNSURBVGje7ZldaBxVFMd/u9lMIp1StPjxYESroFi1CB3UNFabFpTWoJm2Yh+1Dz4pKNVS59UoWumDIPpcKIptby2tH2nj9MP4Ua4gsVoUNBXji4pCyUqTa9LxwRtYxntn7+zOJhH2DwvLuWfOnv/c/5xz7iy00UYb/2uUbAtCqmXANmBfGHiTWUGEVD6wOgy8k4uGgE5sDLgc2A3sDQPvgsWvBBwHRoA9YeCp+SJQrrP+MdADvA6cFVI9JaRamnYKAy8BjgAvAUJIdc1iITBS832OyJiQaoXB9yNgCtgEfCakWrcYCHwJVFO2G4DQsAvfA9/U+HwopNoppOpcSAJ/AucM9kGL/9s137uAl7Wkrl4QAmHgzQCfG5buEFJdZ7AfAqZTReIhLan7FmIHAE4DScrmA30G318AabCvAIaFVM8VLSlXAn8b7BstO3bEEqcLeAU4WKSkXAj8AYwZ7A8IqboN9oPATEbfGQA+LUpSdQnoGm/qsMuBtQb7OHCmTtgbdZXa0aykyo5+o5a7uclC+IBDzMuAV4H9QqqrWk3gK0M/AFgnpOqyNLWLjqPMw1pS97aMQBh4E8B5w9KtwPUG/++Ab3PkcRNwTEj1rJCq0oodmJuL0ujQdd6Ed3LezG7gNS2pK1tBYMS2QbZhFsg7lZaAR3Tj6yuagAT+MthvF1L1GOwTlqbmKqnjQqpn6kkqDwHbXLTU1JV1UzvaRIWck9S7WZJyJhAG3kyS8EWSgOGz0XLZgSRh1nKNy6ecJAwmCaP7z6he0w/keuLfGlGUSu7HujeOKTrKNI0S0GmJ40ygf6hamU24+z9j3b/4wGRMYMvMJTqayP0ScBh4cniX/3uzz8AVuu6nMWnq1P1D1UpGiXXBFLADeDSOzMnnlVAALDHYz8aRP2Gw9+hrGsEPwONx5I8WWUY3ZNR7W3/wciaeAO8BvS7J5yWw3mCbzSiVjzUoma1ZkmlIQv1D1R59UE/jHPCTwf8WYGVOyTwRR/4nrZpG79THyDROxJE/bbA/qMdlF8kcBtY0knweAn2WH3/fcPdLwBaHmBeB57Vkfmu0VFUc5FMC7rccNU9bDvB31Qn7I7A9jvxT83EmXg6sMtiH48ifMtg3Z9yYuVeQa4pI3pXAWqDTpfvq5jVgiTMN7AQ2x5H/a1FvJSqOBNLjTtVyTr7W0rzGdZU5RcEo15t/gHsMS1/Hkf+zwT6o3//USuaobkyFJ+8iIdv8c8jivy0lmV1AWKRk8kpotaH+nzeND/1D1ZuB22p8tseRf4IWo94ObEgdEZ8GVsWRP25pXt26N/TOR/IuO7BeJ74b2BtH/oWMXjEAvADsiSN/3v5iqmQ8wMuAN4F9ceRP1omzBHgxjvyTtNFGG23kwT/6EHPr+GttLAAAAABJRU5ErkJggg==;" parent="1" vertex="1">
          <mxGeometry x="220" y="140" width="48" height="48" as="geometry" />
        </mxCell>
        <mxCell id="Z0VvkoSQmPEsNrfMpDx6-16" value="pdf&#xa;Report" style="shape=image;verticalLabelPosition=bottom;labelBackgroundColor=default;verticalAlign=top;aspect=fixed;imageAspect=0;image=data:image/png,iVBORw0KGgoAAAANSUhEUgAAADAAAAAwCAYAAABXAvmHAAAAw3pUWHRSYXcgcHJvZmlsZSB0eXBlIGV4aWYAAHjabVBBDsMgDLvnFXsCxAHCc+jaSfvBnr8AaddWs4Rr4sgNoe3zftGjg6OQpKK55hwMUqVyM6Fhog2OQQYPwC27X+p0GGwl/Do1e/9ej0fA/DRT6RSkTzeWq1HF8/UW5D9Cn4hNrB5UPQg8jegBbT4r5Krl/IRlC1foPNQJZWQfIfe7FNvemqwI5g0RwRjIcwD0kwjNBAZXa4zQoYuxaZ/EFvJvTzvoC+LbWSMIMNycAAABhGlDQ1BJQ0MgcHJvZmlsZQAAeJx9kT1Iw0AcxV9Tix9UROwgIpKhOtlFRRxLFYtgobQVWnUwufQLmjQkKS6OgmvBwY/FqoOLs64OroIg+AHiLjgpukiJ/0sKLWI8OO7Hu3uPu3eA0Kgw1eyKAqpmGal4TMzmVsXuV/jRi0EEMCYxU0+kFzPwHF/38PH1LsKzvM/9OfqVvMkAn0gcZbphEW8Qz25aOud94hArSQrxOfGkQRckfuS67PIb56LDAs8MGZnUPHGIWCx2sNzBrGSoxDPEYUXVKF/Iuqxw3uKsVmqsdU/+wmBeW0lzneYo4lhCAkmIkFFDGRVYiNCqkWIiRfsxD/+I40+SSyZXGYwcC6hCheT4wf/gd7dmYXrKTQrGgMCLbX+MA927QLNu29/Htt08AfzPwJXW9lcbwNwn6fW2Fj4CBraBi+u2Ju8BlzvA8JMuGZIj+WkKhQLwfkbflAOGboG+Nbe31j5OH4AMdbV8AxwcAhNFyl73eHdPZ2//nmn19wNgH3Kf9xodNAAADlVpVFh0WE1MOmNvbS5hZG9iZS54bXAAAAAAADw/eHBhY2tldCBiZWdpbj0i77u/IiBpZD0iVzVNME1wQ2VoaUh6cmVTek5UY3prYzlkIj8+Cjx4OnhtcG1ldGEgeG1sbnM6eD0iYWRvYmU6bnM6bWV0YS8iIHg6eG1wdGs9IlhNUCBDb3JlIDQuNC4wLUV4aXYyIj4KIDxyZGY6UkRGIHhtbG5zOnJkZj0iaHR0cDovL3d3dy53My5vcmcvMTk5OS8wMi8yMi1yZGYtc3ludGF4LW5zIyI+CiAgPHJkZjpEZXNjcmlwdGlvbiByZGY6YWJvdXQ9IiIKICAgIHhtbG5zOnhtcE1NPSJodHRwOi8vbnMuYWRvYmUuY29tL3hhcC8xLjAvbW0vIgogICAgeG1sbnM6c3RFdnQ9Imh0dHA6Ly9ucy5hZG9iZS5jb20veGFwLzEuMC9zVHlwZS9SZXNvdXJjZUV2ZW50IyIKICAgIHhtbG5zOmRjPSJodHRwOi8vcHVybC5vcmcvZGMvZWxlbWVudHMvMS4xLyIKICAgIHhtbG5zOkdJTVA9Imh0dHA6Ly93d3cuZ2ltcC5vcmcveG1wLyIKICAgIHhtbG5zOnRpZmY9Imh0dHA6Ly9ucy5hZG9iZS5jb20vdGlmZi8xLjAvIgogICAgeG1sbnM6eG1wPSJodHRwOi8vbnMuYWRvYmUuY29tL3hhcC8xLjAvIgogICB4bXBNTTpEb2N1bWVudElEPSJnaW1wOmRvY2lkOmdpbXA6ZGJmMDBlMmEtYzUwMC00N2Y4LWFhNmMtYzNmOWQ5OGVkNDhlIgogICB4bXBNTTpJbnN0YW5jZUlEPSJ4bXAuaWlkOmI2YmM4YzRhLWRiYTktNDllMy1hMjgwLTI4NzViNDNjYzY3ZSIKICAgeG1wTU06T3JpZ2luYWxEb2N1bWVudElEPSJ4bXAuZGlkOjdhMzQzNTEyLWU4M2UtNGJlYi04YTM4LTg2YmIxNjA0MTY5NyIKICAgZGM6Rm9ybWF0PSJpbWFnZS9wbmciCiAgIEdJTVA6QVBJPSIyLjAiCiAgIEdJTVA6UGxhdGZvcm09IldpbmRvd3MiCiAgIEdJTVA6VGltZVN0YW1wPSIxNzQxNTQwMDQwNTkyMTkyIgogICBHSU1QOlZlcnNpb249IjIuMTAuMzYiCiAgIHRpZmY6T3JpZW50YXRpb249IjEiCiAgIHhtcDpDcmVhdG9yVG9vbD0iR0lNUCAyLjEwIgogICB4bXA6TWV0YWRhdGFEYXRlPSIyMDI1OjAzOjA5VDE4OjA3OjE4KzAxOjAwIgogICB4bXA6TW9kaWZ5RGF0ZT0iMjAyNTowMzowOVQxODowNzoxOCswMTowMCI+CiAgIDx4bXBNTTpIaXN0b3J5PgogICAgPHJkZjpTZXE+CiAgICAgPHJkZjpsaQogICAgICBzdEV2dDphY3Rpb249InNhdmVkIgogICAgICBzdEV2dDpjaGFuZ2VkPSIvIgogICAgICBzdEV2dDppbnN0YW5jZUlEPSJ4bXAuaWlkOjI3ZmU2Zjk3LTNjM2EtNDU0OS1hMTJhLWFhZGRlNDdmY2FkZiIKICAgICAgc3RFdnQ6c29mdHdhcmVBZ2VudD0iR2ltcCAyLjEwIChXaW5kb3dzKSIKICAgICAgc3RFdnQ6d2hlbj0iMjAyNS0wMy0wOVQxMDo1NToxMCIvPgogICAgIDxyZGY6bGkKICAgICAgc3RFdnQ6YWN0aW9uPSJzYXZlZCIKICAgICAgc3RFdnQ6Y2hhbmdlZD0iLyIKICAgICAgc3RFdnQ6aW5zdGFuY2VJRD0ieG1wLmlpZDo2ZjQ3OTMwNy0yNTljLTQ3NjUtOTE4NC05YmQ1M2U3ZTU4NDAiCiAgICAgIHN0RXZ0OnNvZnR3YXJlQWdlbnQ9IkdpbXAgMi4xMCAoV2luZG93cykiCiAgICAgIHN0RXZ0OndoZW49IjIwMjUtMDMtMDlUMTg6MDc6MjAiLz4KICAgIDwvcmRmOlNlcT4KICAgPC94bXBNTTpIaXN0b3J5PgogIDwvcmRmOkRlc2NyaXB0aW9uPgogPC9yZGY6UkRGPgo8L3g6eG1wbWV0YT4KICAgICAgICAgICAgICAgICAgICAgICAgICAgICAgICAgICAgICAgICAgICAgICAgICAgICAgICAgICAgICAgICAgICAgICAgICAgICAgICAgICAgICAgICAgICAgICAgICAgIAogICAgICAgICAgICAgICAgICAgICAgICAgICAgICAgICAgICAgICAgICAgICAgICAgICAgICAgICAgICAgICAgICAgICAgICAgICAgICAgICAgICAgICAgICAgICAgICAgICAgCiAgICAgICAgICAgICAgICAgICAgICAgICAgICAgICAgICAgICAgICAgICAgICAgICAgICAgICAgICAgICAgICAgICAgICAgICAgICAgICAgICAgICAgICAgICAgICAgICAgICAKICAgICAgICAgICAgICAgICAgICAgICAgICAgICAgICAgICAgICAgICAgICAgICAgICAgICAgICAgICAgICAgICAgICAgICAgICAgICAgICAgICAgICAgICAgICAgICAgICAgIAogICAgICAgICAgICAgICAgICAgICAgICAgICAgICAgICAgICAgICAgICAgICAgICAgICAgICAgICAgICAgICAgICAgICAgICAgICAgICAgICAgICAgICAgICAgICAgICAgICAgCiAgICAgICAgICAgICAgICAgICAgICAgICAgICAgICAgICAgICAgICAgICAgICAgICAgICAgICAgICAgICAgICAgICAgICAgICAgICAgICAgICAgICAgICAgICAgICAgICAgICAKICAgICAgICAgICAgICAgICAgICAgICAgICAgICAgICAgICAgICAgICAgICAgICAgICAgICAgICAgICAgICAgICAgICAgICAgICAgICAgICAgICAgICAgICAgICAgICAgICAgIAogICAgICAgICAgICAgICAgICAgICAgICAgICAgICAgICAgICAgICAgICAgICAgICAgICAgICAgICAgICAgICAgICAgICAgICAgICAgICAgICAgICAgICAgICAgICAgICAgICAgCiAgICAgICAgICAgICAgICAgICAgICAgICAgICAgICAgICAgICAgICAgICAgICAgICAgICAgICAgICAgICAgICAgICAgICAgICAgICAgICAgICAgICAgICAgICAgICAgICAgICAKICAgICAgICAgICAgICAgICAgICAgICAgICAgICAgICAgICAgICAgICAgICAgICAgICAgICAgICAgICAgICAgICAgICAgICAgICAgICAgICAgICAgICAgICAgICAgICAgICAgIAogICAgICAgICAgICAgICAgICAgICAgICAgICAgICAgICAgICAgICAgICAgICAgICAgICAgICAgICAgICAgICAgICAgICAgICAgICAgICAgICAgICAgICAgICAgICAgICAgICAgCiAgICAgICAgICAgICAgICAgICAgICAgICAgICAgICAgICAgICAgICAgICAgICAgICAgICAgICAgICAgICAgICAgICAgICAgICAgICAgICAgICAgICAgICAgICAgICAgICAgICAKICAgICAgICAgICAgICAgICAgICAgICAgICAgICAgICAgICAgICAgICAgICAgICAgICAgICAgICAgICAgICAgICAgICAgICAgICAgICAgICAgICAgICAgICAgICAgICAgICAgIAogICAgICAgICAgICAgICAgICAgICAgICAgICAgICAgICAgICAgICAgICAgICAgICAgICAgICAgICAgICAgICAgICAgICAgICAgICAgICAgICAgICAgICAgICAgICAgICAgICAgCiAgICAgICAgICAgICAgICAgICAgICAgICAgICAgICAgICAgICAgICAgICAgICAgICAgICAgICAgICAgICAgICAgICAgICAgICAgICAgICAgICAgICAgICAgICAgICAgICAgICAKICAgICAgICAgICAgICAgICAgICAgICAgICAgICAgICAgICAgICAgICAgICAgICAgICAgICAgICAgICAgICAgICAgICAgICAgICAgICAgICAgICAgICAgICAgICAgICAgICAgIAogICAgICAgICAgICAgICAgICAgICAgICAgICAgICAgICAgICAgICAgICAgICAgICAgICAgICAgICAgICAgICAgICAgICAgICAgICAgICAgICAgICAgICAgICAgICAgICAgICAgCiAgICAgICAgICAgICAgICAgICAgICAgICAgICAgICAgICAgICAgICAgICAgICAgICAgICAgICAgICAgICAgICAgICAgICAgICAgICAgICAgICAgICAgICAgICAgICAgICAgICAKICAgICAgICAgICAgICAgICAgICAgICAgICAgICAgICAgICAgICAgICAgICAgICAgICAgICAgICAgICAgICAgICAgICAgICAgICAgICAgICAgICAgICAgICAgICAgICAgICAgIAogICAgICAgICAgICAgICAgICAgICAgICAgICAgICAgICAgICAgICAgICAgICAgICAgICAgICAgICAgICAgICAgICAgICAgICAgICAgICAgICAgICAgICAgICAgICAgICAgICAgCiAgICAgICAgICAgICAgICAgICAgICAgICAgIAo8P3hwYWNrZXQgZW5kPSJ3Ij8+A3KdEAAAAAZiS0dEAAAASwC6rjiDzAAAAAlwSFlzAAALEwAACxMBAJqcGAAAAAd0SU1FB+kDCREHFI9IXk0AAASVSURBVGje7dhZbFRVGMDx/znnzrSdzh2mDVAKBUoXoAaoLAbCIpWwBRKUB0DEqDXR0IQYnlREEzXAgz4Yl8gWRB8QDEa0IgnUSiJohYKEQlkKtEApdaalM+0UprPd6wPtC7aRynSWxJPMy52ZO99vvvPd850j6GWcXrNSodR6TPNlwEYUhyZlV74t5RX71t3Ho3E/0dvFU8+vejrk9X4X9HgkphnN+EnT7RTl5bYBy/Stu3971PvJ3i4GWtxTA26XNENBzHAouq9IBCATOOArK505IICQxyMZ+DEE+MFXVjoj6oAYjsHAj4+CiDegB/G9r6x0erICALKAcl9Z6RPJCgAYCvzkKyudlqyAnsIu7w8i0QAA2d2IKckK6EEc8pWVTk5WQE9hH/w3RMwB4WCQiGE87MeHd68TxQkD6PL7aXC39gcxAjjUvvalib02h7EGKCG4cf0GV5ubSUtJ6auffLDlHG6HD4HFcQcAOC0akUgE4+69h/5OSJAaswzoC5dgcTrpOF1N+NqVPjOhxKP/VtRrQDkzmPD6m3S0tjJs1XMgxIBmM+oZsIwcjVAK8+YN2jOcAz4do56BiN+PEAIlJd7KCqK9oxtwQPB24/3UOp2kFxQmXwaE38+9tjb0KVOxjStKPgCmSXtjI9mzZiNt6UkIADrqLuEoKCTodiUnwFdbixEOQ8RIToBz7FikppG9aNGArwPRB0jJ8Hnzqas4wpDix7GXzE8uQMbyFcj0dOo/+YjmixfIf3Ut0uFMDoCwppDzzHJunTxBWouLmi2b0HQ7ee+8i7BYEx+gL16KLSuLxi92IoQg7Xo9x7dsJmPCRPK2fICw64nbCwmrlTHPrqb+2DG0pvursRSg/VrJ0Y1+St7fxOSv9uCursbqdGLVdZRSmKZJsLMTb81Z7uzbgxkKxgeQsXwF1oxMbu3cRpo+CNvESThnzcGRn481MxOf202gs5OcBQsxw2EuHyznVlUVka4u0kaOZPTsOdifLMFXeST2AGGxkrtiJU2nqhm/bj0pzkHc9flw1dVR+0slXadOIPx30ZRGpHA8BavXMKZkHnnz5tN29Qrtly/jOX+OQP21OEwh02TY2nVouoOA10t9xWE6zvyJxQiTKhW6FAwSArrbCvNmA42b3+MiYJ8xk2Gz5uDIzQW3G//tJkTMAFKiP7UALTWFUUuWUvPNXlp3bCVVSYYqAcrSx/YWHJrCAUSq/6D1xO80GyYWKbApFZsMSN3BqDfewtNwncziYryuv/B8uYt0rX8BKNEdtIrhY1RlZVP08ee4m24TCgQYUvQY5z/7lFQjEpfTL9nf+V6w4W08Lhf+mrNMeuFFzuz9GnGyiniNfgFERiaOwkLaztUwbcNGLv1cgXfXNjQp4gboVw0YnjZO7thOzvQZVO3cjv/AfnQZ3+PVfgGEEAQP7OfCt/tIUyruwf+np5BVSqwycQ61E/l4/X9A8gL8hnEz0QINGkbDQxfx0ZY75XMHZy6zKTU3EbIUMowrtb7Oz/rqrf65s1JSBAxzxGs52ePsmkqN8z8fOdxyp/70va4GIPTg+38DFf3BUTedceYAAAAASUVORK5CYII=;" parent="1" vertex="1">
          <mxGeometry x="420" y="250" width="48" height="48" as="geometry" />
        </mxCell>
        <mxCell id="Z0VvkoSQmPEsNrfMpDx6-17" value="" style="endArrow=classic;html=1;rounded=0;entryX=0;entryY=0.5;entryDx=0;entryDy=0;" parent="1" target="Z0VvkoSQmPEsNrfMpDx6-16" edge="1">
          <mxGeometry width="50" height="50" relative="1" as="geometry">
            <mxPoint x="240" y="230" as="sourcePoint" />
            <mxPoint x="570" y="270" as="targetPoint" />
            <Array as="points">
              <mxPoint x="240" y="274" />
            </Array>
          </mxGeometry>
        </mxCell>
        <mxCell id="Z0VvkoSQmPEsNrfMpDx6-18" value="Generate report" style="edgeLabel;html=1;align=center;verticalAlign=middle;resizable=0;points=[];" parent="Z0VvkoSQmPEsNrfMpDx6-17" vertex="1" connectable="0">
          <mxGeometry x="-0.0547" y="1" relative="1" as="geometry">
            <mxPoint x="23" y="1" as="offset" />
          </mxGeometry>
        </mxCell>
        <mxCell id="Z0VvkoSQmPEsNrfMpDx6-19" value="Scheduler" style="rounded=0;whiteSpace=wrap;html=1;fillColor=#d5e8d4;strokeColor=#82b366;" parent="1" vertex="1">
          <mxGeometry x="10" y="60" width="120" height="20" as="geometry" />
        </mxCell>
        <mxCell id="Z0VvkoSQmPEsNrfMpDx6-20" value="Cloud Run" style="rounded=0;whiteSpace=wrap;html=1;fillColor=#dae8fc;strokeColor=#6c8ebf;" parent="1" vertex="1">
          <mxGeometry x="184" y="60" width="120" height="20" as="geometry" />
        </mxCell>
        <mxCell id="Z0VvkoSQmPEsNrfMpDx6-21" value="Buckets" style="rounded=0;whiteSpace=wrap;html=1;fillColor=#fff2cc;strokeColor=#d6b656;" parent="1" vertex="1">
          <mxGeometry x="384" y="60" width="120" height="20" as="geometry" />
        </mxCell>
      </root>
    </mxGraphModel>
  </diagram>
</mxfile>
